<?xml version="1.0" standalone="no"?>
<!DOCTYPE svg PUBLIC "-//W3C//DTD SVG 1.1//EN" "http://www.w3.org/Graphics/SVG/1.1/DTD/svg11.dtd">
<svg xmlns="http://www.w3.org/2000/svg">
<metadata>Generated by Fontastic.me</metadata>
<defs>
<font id="untitled-font-1" horiz-adv-x="512">
<font-face font-family="untitled-font-1" units-per-em="512" ascent="480" descent="-32"/>
<missing-glyph horiz-adv-x="512" />

<glyph glyph-name="ludosonica" unicode="&#97;" d="M328 178l0 173c0 5-3 9-8 9l-176 0c-2 0-5-1-6-3l-73-73c-3-2-1-7-1-10l0-171c0-4 4-7 8-7l176 0c0 0 2 0 3 0 1 0 1 1 1 1 1 0 1 0 2 1l74 69c3 3 3 8 0 11z m-83-66l-159 0 56 57c0-1 1-1 2-1l104 0 0-54z m-165 160l56 0 0-97c0 0 0 0 0-1l-56-57z m4 8l52 53 0-53z m172-5l56 56 0-155-56 0z m-8-99l-104 0 0 96 104 0z m8-8l49 0-49-46z m56 174l-61-62-107 0 0 61 3 3 165 0z m144 58l-72 0 0 72-16 0 0-72-72 0 0-16 72 0 0-72 16 0 0 72 72 0z"/>
<glyph glyph-name="ludosonica-1" unicode="&#98;" d="M273 291c0-11-9-19-19-19-11 0-19 8-19 19 0 10 8 19 19 19 10 0 19-9 19-19z m-98-2c1 0 1-1 1-2 0 0 0 0 1-1 0 0 0 0 0-1 8-15 30-53 77-53 44 0 77 36 82 57 1 0 0 0 1 0 0 0 0 1 0 2 0 0 0 1 0 2-1 0 0 0-1 0-5 20-38 57-82 57-47 0-69-39-77-54 0 0 0-1 0-1-1 0-1 0-1-1 0 0 0-1-1-2 0-1 0-1 0-1 0-1 0-1 0-2z m79 45c34 0 60-27 66-43-6-16-32-43-66-43-32 0-51 23-62 43 11 19 30 43 62 43z m-44 70l38 20 0-44c0-2 2-4 4-4 2 0 4 2 4 4l0 44 39-20c0 0 1 0 1 0 2 0 3 0 4 2 1 2 0 4-2 5l-45 23c-1 1-2 1-3 0l-44-23c-1-1-2-3-1-5 1-2 3-3 5-2z m126-235c-2 3-7 4-11 1l-45-35-24 82c0 2-2 3-5 3-2-1-3-3-2-5l0-1c-1-1-1-1-1-2l-23-77-44 35c-3 3-8 2-11-1-3-4-2-9 1-12l77-60c1-1 3-2 4-2 2 0 4 1 5 2l78 60c4 3 4 8 1 12z m-83-55l-21 16 21 70 20-70c0 0 0 0 0-1z"/>
<glyph glyph-name="ludosonica-2" unicode="&#99;" d="M321 280l99 100c16 15 16 41 0 56-15 16-41 16-56 0l-100-99-100 99c-15 16-41 16-56 0-16-15-16-41 0-56l99-100-99-100c-16-15-16-41 0-56 8-8 18-12 28-12 10 0 20 4 28 12l100 99 100-99c8-8 18-12 28-12 10 0 20 4 28 12 16 15 16 41 0 56z"/>
<glyph glyph-name="ludosonica-3" unicode="&#100;" d="M209 96c-8 0-16 3-22 9-13 13-13 33 0 46l137 137-137 137c-13 13-13 33 0 46 12 12 32 12 45 0l160-160c12-13 12-33 0-46l-160-160c-6-6-15-9-23-9z"/>
<glyph glyph-name="ludosonica-4" unicode="&#101;" d="M384 448l0 64-320 0 0-352 64 0 0-96 352 0 0 384z m-288-256l0 288 256 0 0-32-224 0 0-256z m256 192l0-192-160 0 0 192z m64-256l-224 0 0 32 192 0 0 224 32 0z"/>
<glyph glyph-name="ludosonica-5" unicode="&#102;" d="M459 142l-169 169c41 61 13 103-57 175l-46-44c72-74 72-74 20-125-17-18-26-20-29-20-10 0-30 21-50 41-6 6-12 12-19 19l-46-46c7-7 13-16 19-22 31-32 58-65 95-65 1 0 1 0 1 0 18 0 33 8 46 17l167-167z"/>
<glyph glyph-name="ludosonica-6" unicode="&#103;" d="M448 232c0 1 0 2-1 3 0 1 0 2-1 2 0 0 0 2 0 2l0 1-32 31c-3 3-8 3-11 0-4-4-4-9-1-12l19-19-77 0 0 119c0 5-3 9-8 9l-120 0 0 77 19-18c1-2 3-3 5-3 2 0 4 1 6 3 3 3 3 8 0 11l-32 32c0 0-1 0-1 0-1 1-1 1-2 1-1 1-2 1-3 1-1 0-2 0-3-1-1 0-2-1-3-1l-31-32c-3-3-3-8 0-11 3-3 8-3 11 0l18 18 0-77-40 0c-2 0-5-1-6-3l-71-71c-3-2-3-9-3-12l0-171c0-4 4-7 8-7l176 0c1 0 2 0 3 0 1 0 1 1 1 1 1 0 1 0 2 1l74 69c3 3 3 8 0 11l0 38 77 0-18-18c-4-3-4-8 0-12 1-1 3-2 5-2 2 0 4 1 6 3l32 30c0 0 0-1 0-1 0 0 0 1 0 2 0 0 1 2 1 2 1 1 1 3 1 4z m-240 87c4 0 8 4 8 8l0 25 112 0 0-2-61-62-107 0 0 61 3 3 37 0 0-25c0-4 4-8 8-8z m56-197l-3-2-159 0 56 57c0-1 1-1 2-1l104 0z m8 54l49 0-49-46z m-176 104l56 0 0-97c0 0 0 0 0-1l-56-57z m4 8l52 53 0-53z m60-104l0 96 104 0 0-96z m168 0l-56 0 0 99 56 56 0-99-24 0c-4 0-8-4-8-8 0-4 4-8 8-8l24 0z"/>
<glyph glyph-name="ludosonica-7" unicode="&#104;" d="M249 144c-8 0-16 3-22 9l-160 160c-13 13-13 33 0 46 12 12 32 12 45 0l137-138 138 138c12 12 32 12 45 0 12-13 12-33 0-46l-160-160c-6-6-15-9-23-9z"/>
<glyph glyph-name="ludosonica-8" unicode="&#105;" d="M273 275c0-11-9-19-19-19-11 0-19 8-19 19 0 10 8 19 19 19 10 0 19-9 19-19z m64 1c-1 1 0 1-1 1-5 20-38 57-82 57-47 0-69-39-77-54 0 0 0-1 0-1-1 0-1 0-1-1 0-1 0-1-1-2 0-1 0-1 0-1 0-1 0-1 0-2 1 0 1-1 1-2 0 0 0 0 1-1 0 0 0 0 0-1 8-15 30-53 77-53 44 0 77 36 82 57 1 0 0 0 1 0 0 0 0 1 0 2 0 0 0 1 0 1z m-83-44c-32 0-51 23-62 43 11 19 30 43 62 43 34 0 60-27 66-43-6-16-32-43-66-43z m-30 175c2 0 4 1 6 2l18 18 0-61c0-5 4-8 8-8 4 0 8 3 8 8l0 61 19-18c3-3 8-3 11 0 3 3 4 8 1 12l-31 31-1 0c0 0-1 0-1 1-1 0-2 1-3 1-1 0-2 1-3 1 0 0 0 1 0 1-1 0-2-1-3-1-1-1-2-2-3-2l-31-32c-3-3-3-9 0-12 1-1 3-2 5-2z m59-260l-19-18 0 62c0 4-4 8-8 8-4 0-8-4-8-8l0-62-18 18c-3 3-8 3-11 0-3-3-3-8 0-11l31-32c1-1 2-1 3-2 1 0 2 0 3 0 1 0 2 0 3 0 1 1 1 1 2 2 0 0 2 0 2 0l1 0 31 32c3 3 3 8-1 11-3 3-8 3-11 0z m165 125c0 1 0 2 0 3-1 1-1 2-2 3l-32 32c-3 3-8 3-11 0-3-4-3-9 0-12l18-18-61 0c-5 0-8-4-8-8 0-4 3-8 8-8l61 0-18-18c-3-4-3-9 0-12 2-1 4-2 6-2 2 0 5 1 6 2l33 33-1 0c1 1 1 2 1 2 0 1 0 2 0 3z m-296 8l-61 0 18 18c3 3 3 8 0 12-3 3-8 3-11 0l-32-32c-1-1-1-2-2-3 0-1 0-2 0-3 0-1 0-2 0-3 1 0 1-1 1-2 1 0 0 0 0 0l-1 0 33-33c1-1 4-2 6-2 2 0 4 1 6 2 3 3 3 8 0 12l-18 18 61 0c5 0 8 4 8 8 0 4-3 8-8 8z"/>
<glyph glyph-name="ludosonica-9" unicode="&#106;" d="M375 402c5 9 2 20-7 24-4 2-9 3-14 1-6-2-11-6-14-12-2-5-7-14-12-23-3-6-7-12-10-18l-4-8c-13-24-25-47-26-52-1-2-1-3-2-4 1 2 1 3 1 5 1 2 3 15 7 36 4 26 10 61 12 65 1 4 0 9-2 14-3 6-9 10-15 12-13 4-19-13-22-23-2-5-8-29-15-54-7-28-16-59-17-63-3-6-4-7-7-9-1 0-2-1-3-1-6-2-18-6-22-19-2-7-5-20-8-32-2-9-4-18-6-22-2-7 0-21 1-32 1-3 1-5 1-7 1-4-2-11-5-17-2-4-3-8-5-12-10-31-16-41-16-41l7-4c0 0 6 10 17 43 1 3 3 7 4 11 4 7 7 15 6 21 0 2 0 4-1 7-1 9-3 23-1 29 1 4 3 12 6 22 2 12 5 25 8 32 2 8 11 11 16 13 2 1 4 2 5 2 5 3 7 6 10 13 2 4 8 28 18 64 6 24 13 49 15 53 4 12 7 20 12 18 4-1 8-4 10-8 1-2 2-5 1-7-2-5-6-32-12-66-3-18-6-34-6-36-2-7-4-14 1-17 2-1 4-1 6 0 4 2 7 6 8 12 2 5 18 34 26 50l4 9c3 5 7 11 10 17 5 10 10 19 12 24 2 3 5 6 10 7 3 1 6 1 7 0 5-2 6-8 4-13-4-7-44-95-46-100-2-3-3-10 4-13 1-1 3-2 6-11l1-2c3-5 3-6 3-9-2-7 2-11 4-12 2-1 4-4 6-7 1-2 3-9 1-13-2-5-22-66-25-75-2-6-6-14-14-23-3-2-12-12-14-14-5-3-7-10-7-19l8 0c0 8 2 12 3 12 4 3 14 14 16 17 3 3 13 14 16 24 3 11 23 71 25 75 2 7 0 17-2 20-2 3-5 7-8 9-2 1-2 2-2 4 2 6 0 9-2 14l-1 2c-4 8-6 13-10 15-2 1-2 1-1 3 2 5 42 93 46 99z m-167-41c0 3-2 5-4 7l-88 55c-2 2-5 2-8 1-2-2-4-4-4-7l0-112c0-3 2-5 4-7 1 0 3-1 4-1 1 0 3 1 4 1l88 56c2 2 4 4 4 7z m-88-41l0 82 65-41z"/>
<glyph glyph-name="ludosonica-11" unicode="&#108;" d="M109 240c4 1 6 5 5 10-23 76-10 128 54 170l0-32c0-4 4-8 8-8 4 0 8 4 8 8l0 52c0 4-4 8-8 8l-45 0c-4 0-8-4-8-8 0-4 4-8 8-8l27 0c-66-46-84-104-59-187 1-3 4-6 7-6 1 0 2 0 3 1z m310 80l-161 65c-2 1-5 1-7 0l-91-48c-4-2-5-6-4-10l-51-164c-1-4 1-9 5-10l167-56c0 0 0 0 1 0 0-1 1-1 2-1 0 0 1 0 2 1 0 0 1 0 1 0 0 0 0 0 1 0l88 48c0 0 0 1 0 1 1 0 1 0 2 1 0 0 0 0 1 1 0 0 1 1 1 2l0 2 48 159c1 4-1 8-5 9z m-167 47l3 2 147-59-66-33-102 33z m79-97l-30-90-98 32 29 90z m-89 92l-15-49-49 16z m-71-40l53-17-29-93c0-1 0-1 0-2l-71-39z m108-209l-152 51 73 40 98-32z m10 5l17 52 48-16z m73 42l-54 17 31 92 66 33z"/>
<glyph glyph-name="ludosonica-12" unicode="&#109;" d="M152 216l113-71c2-1 3-1 5-1 0 0 1 0 1 0 3 1 4 2 5 4 1 2 25 42 25 129 0 87-23 130-24 132-2 2-3 3-5 3-3 1-5 1-7 0l-107-68-62 0c-4 0-8-4-8-8l0-112c0-4 4-8 8-8z m-48 16l0 96 51 0c-4-12-10-30-10-51 0-18 4-34 8-45z m162-68l-98 61-2-3c-3 6-13 28-13 55 0 27 10 51 13 58l2-3 98 61c6-15 19-54 19-116 0-61-12-99-19-113z m65 263c0-1 25-49 25-146 0-97-25-143-25-143l7-4c1 2 26 48 26 147 0 99-25 148-26 150z m55 4l-7-4c0-1 25-49 25-146 0-97-25-143-25-143l7-4c1 2 26 48 26 147 0 99-25 148-26 150z"/>
<glyph glyph-name="ludosonica-13" unicode="&#110;" d="M408 440c0 5-3 8-8 8l-233 0c-1 0-2 0-3 0-1-1-2-1-3-2l-95-95c0-1-1-2-1-2-1-1-1-2-1-4l0-233c0 0 0-1 0-1 0-1 0-1 1-2 0-1 1-2 1-3 1 0 2-1 3-1 1-1 2-1 3-1l233 0c2 0 3 0 4 1 1 0 1 1 2 1l95 95c1 1 1 2 2 3 0 1 0 2 0 3z m-16-230l-2-2-14 0c-2 0-4-2-4-4 0-2 2-4 4-4l6 0-80-80-120 0 33 33c1 1 1 1 1 1 0 1 0 1 0 2l0 44 23 0c3 0 4 2 4 4 0 2-1 4-4 4l-23 0 0 37 120 119 0-40c0-4 4-8 8-8 4 0 8 4 8 8l0 60c0 1 0 2 0 3-1 2-3 3-5 4 0 0-1 1-2 1 0 0 0 0-1 0l-60 0c-4 0-8-4-8-8 0-4 4-8 8-8l41 0-120-120-37 0 0 23c0 2-2 4-4 4-2 0-4-2-4-4l0-23-44 0c0 0-1 0-1 0-1-1-1-1-2-1l-33-34 0 121 80 80 0-8c0-2 2-4 4-4 2 0 4 2 4 4l0 16 2 2 222 0z m-280-52l-32-32 0 74 32 0z m91 90l-33-32c0 0-1 0-2 0l-48 0 0 32z m-91-32l-26 0 26 26z m8-16l40 0 0-40-40 0z m56 10l32 32 0-82-32 0 0 48c0 1 0 1 0 2z m27-58l-27-26 0 26z m-117-32l32 32 42 0 0-32z m78 253c-2 0-4-2-4-4l0-45c0-2 2-4 4-4 2 0 4 2 4 4l0 45c0 2-2 4-4 4z m167-165l-46 0c-2 0-4-2-4-4 0-2 2-4 4-4l46 0c2 0 4 2 4 4 0 2-2 4-4 4z"/>
<glyph glyph-name="ludosonica-14" unicode="&#111;" d="M381 367l-103 103c-1 1-3 2-5 2l-153 0c-5 0-8-4-8-8l0-352c0-4 3-8 8-8l256 0c4 0 8 4 8 8l0 249c0 2-1 4-3 6z m-16-7l-93 0 0 94z m-237-240l0 336 136 0 0-100c0-2 1-4 4-4l100 0 0-232z m124 82c-3 0-4-2-4-4l0-20c0-2 1-4 4-4 2 0 4 2 4 4l0 20c0 2-2 4-4 4z m32 0c-3 0-4-2-4-4l0-20c0-2 1-4 4-4 2 0 4 2 4 4l0 20c0 2-2 4-4 4z m32 0c-3 0-4-2-4-4l0-20c0-2 1-4 4-4 2 0 4 2 4 4l0 20c0 2-2 4-4 4z"/>
<glyph glyph-name="noun-346786-cc" unicode="&#112;" d="M64 512c-7 0-13-6-13-13l0-153c0-7 6-13 13-13l154 0c7 0 12 6 12 13l0 153c0 7-5 13-12 13z m230 0c-7 0-12-6-12-13l0-153c0-7 5-13 12-13l154 0c7 0 13 6 13 13l0 153c0 7-6 13-13 13z m-217-26l128 0 0-128-128 0z m230 0l128 0 0-128-128 0z m-243-204c-7 0-13-6-13-13l0-154c0-7 6-13 13-13l154 0c7 0 12 6 12 13l0 154c0 7-5 13-12 13z m306 0c-10 0-20-2-30-6-39-14-63-54-58-95 6-42 39-74 80-78 42-4 81 21 94 61 2 4 1 9-2 13-3 3-8 5-13 4-4-1-8-5-9-9-10-29-37-47-67-44-30 3-54 26-57 56-4 30 13 58 41 68 27 10 56 1 73-22l-12 0c-5 0-9-2-12-6-2-4-2-9 0-13 3-4 7-6 12-6l38 0c7 0 13 6 13 13l0 38c0 3-1 7-4 9-2 3-6 4-9 4-7 0-13-6-13-13l0-1c-10 10-22 18-35 22-10 3-20 5-30 5z m-293-26l128 0 0-128-128 0z"/>
<glyph glyph-name="icn-add" unicode="&#117;" d="M205 486l102 0 0-460-102 0z m281-179l0-102-460 0 0 102z"/>
<glyph glyph-name="icn-edit" unicode="&#114;" d="M482 482c-20 19-46 30-73 30-28 0-53-11-73-30l-292-292c-3-4-6-8-7-12l-36-146c-2-9 0-18 7-24 6-7 15-9 24-7l146 36c4 1 8 4 12 7l292 292c19 20 30 45 30 73 0 28-11 53-30 73z m-301-337l191 191 19-18-204-204z m-36 36l-31 6 204 204 18-19z m-64-39l51-10 10-51-81-20z m273 285l18 19c20 19 54 19 74 0l0 0c19-20 19-54 0-74l-19-18z"/>
<glyph glyph-name="icn-link" unicode="&#116;" d="M301 138c3 0 6 1 9 1-2-2-3-3-5-5l-51-52c-41-41-106-41-147 0-40 41-40 107 0 148l52 52c1 2 3 3 4 5 32 28 77 34 114 16 10-5 20-12 28-21 9-8 16-18 21-29-7-6-15-10-25-10-3 0-7 1-10 2-3 4-6 9-10 13-4 4-8 7-13 10-26 16-62 13-85-10l-15-16-36-37c-27-27-27-71 0-98 27-28 70-28 97 0l36 36c12-3 24-5 36-5z m125 267c-40 40-106 40-146 0l-52-53c-2-1-3-3-4-4 3 0 5 0 8 0 12 0 24-2 36-5l36 37c27 27 71 27 98 0 27-27 27-72 0-99l-36-37-16-15c-23-24-58-27-85-10-4 2-9 6-13 10-4 4-7 8-10 13-3 1-6 1-10 1-9 0-18-4-24-10 5-10 11-20 20-29 8-9 18-15 29-20 36-18 81-13 113 16 1 1 3 3 4 4l52 52c41 41 41 108 0 149z"/>
<glyph glyph-name="icn-more" unicode="&#115;" d="M154 276l41 0 0-40-41 0z m82 0l40 0 0-40-40 0z m81 0l41 0 0-40-41 0z"/>
<glyph glyph-name="icn-move" unicode="&#118;" d="M348 271l51 0 0-30-51 0z m51 21l41-36-41-36z m-235-21l-51 0 0-30 51 0z m-51 21l-41-36 41-36z m128 56l0 51 30 0 0-51z m-21 51l36 41 36-41z m51-235l0-51-30 0 0 51z m21-51l-36-41-36 41z m25 143c0-34-27-61-61-61-34 0-61 27-61 61 0 34 27 61 61 61 34 0 61-27 61-61z"/>
<glyph glyph-name="icn-new-template" unicode="&#119;" d="M218 66l-156 78-36-18 192-96 192 96-36 18z m0 68l-156 78-36-18 192-96 192 96-36 18z m192 128l-192 96-192-96 192-96z m-192 61l120-61-120-60-121 60z m166 163l51 0 0-153-51 0z m-51-51l153 0 0-51-153 0z"/>
<glyph glyph-name="icn-object" unicode="&#120;" d="M256 379l-123-51 0-144 123-51 123 51 0 144z m0-23l82-34-82-34-82 34z m-101-158l0 109 90-37 0-110z m202 0l-90-38 0 110 90 37z"/>
<glyph glyph-name="icn-rotate" unicode="&#121;" d="M317 256c0-34-27-61-61-61-34 0-61 27-61 61 0 34 27 61 61 61 34 0 61-27 61-61z m-64 131c71 0 129-59 129-131l33 0c0 90-73 164-162 164-44 0-84-18-114-48l-21 21 0-78 66 11-22 23c24 24 56 38 91 38z m6-262c-71 0-129 59-129 131l-33 0c0-90 73-164 162-164 44 0 84 18 114 48l21-21 0 78-66-11 22-23c-24-24-56-38-91-38z"/>
<glyph glyph-name="icn-scene" unicode="&#65;" d="M260 369c-1 0-3 0-4 0-1 0-3 0-4 0-61-3-109-52-109-113 0-61 48-110 109-113 1 0 3 0 4 0 1 0 3 0 4 0 61 3 109 52 109 113 0 61-48 110-109 113z m88-103l-41 0c-2 35-16 62-28 79 37-9 64-41 69-79z m-92 77c10-14 27-41 30-77l-60 0c3 36 20 63 30 77z m30-97c-3-36-20-63-30-77-10 14-27 41-30 77z m-53 99c-12-17-26-44-28-79l-41 0c5 38 32 70 69 79z m-69-99l41 0c2-35 16-62 28-79-37 9-64 41-69 79z m115-79c12 17 26 44 28 79l41 0c-5-38-32-70-69-79z"/>
<glyph glyph-name="icn-template" unicode="&#66;" d="M256 155l-125 63-29-15 154-76 154 76-29 15z m0 55l-125 62-29-14 154-77 154 77-29 14z m154 102l-154 77-154-77 154-76z m-154 49l96-49-96-48-96 48z"/>
<glyph glyph-name="icn-trash" unicode="&#67;" d="M77 51c0-28 23-51 51-51l256 0c28 0 51 23 51 51l0 307-358 0z m51 256l256 0 0-256-256 0z m205 128l0 51-154 0 0-51-153 0 0-51 460 0 0 51z m-154-179l51 0 0-154-51 0z m103 0l51 0 0-154-51 0z"/>
<glyph glyph-name="icn-template-small" unicode="&#68;" d="M269 118l-156 78-36-18 192-96 192 96-36 18z m0 67l-156 78-36-18 192-96 192 96-36 18z m192 129l-192 96-192-96 192-96z m-192 60l120-60-120-61-121 61z"/>
<glyph glyph-name="icn-duplicate" unicode="&#113;" d="M358 461l52 0 0-154-52 0z m-51-51l154 0 0-52-154 0z m64-359l13 0 0 26-230 0 0-26z m-13 39l0-13 26 0 0 179-26 0z m-192 192l-12 0 0-26 230 0 0 26z m-12-192l0-13 25 0 0 179-25 0z m-90 294l-13 0 0-26 231 0 0 26z m-13-218l0-12 26 0 0 204-26 0z m64-12l13 0 0 25-51 0 0-25z m141 166l0-13 26 0 0 51-26 0z"/>
<glyph glyph-name="icn-scale" unicode="&#122;" d="M289 155c63 9 110 62 110 127 0 70-57 128-128 128-64 0-118-48-126-110 18 17 43 28 70 28 57 0 102-46 102-103 0-27-10-52-28-70z m-66-22c47 4 84 44 84 92 0 51-41 92-92 92-48 0-88-37-92-84 12 8 26 13 41 13 39 0 72-32 72-72 0-15-5-29-13-41z m2 41c0-34-27-61-61-61-34 0-62 27-62 61 0 34 28 62 62 62 34 0 61-28 61-62z"/>
<glyph glyph-name="ludosonica-10" unicode="&#107;" d="M128 100c-5 0-11 1-16 4-10 5-16 16-16 28l0 320c0 11 6 22 16 28 11 5 23 5 33-1l256-160c10-6 15-16 15-27 0-11-5-22-15-27l-256-160c-5-4-11-5-17-5z m32 294l0-205 164 103z"/>
<glyph glyph-name="play" unicode="&#70;" d="M154 246l0 112 204-102-204-102 0 87 30 0 0-36 103 51-103 51 0-61z m0 20l30 0 0-41-30 0z"/>
<glyph glyph-name="stop" unicode="&#71;" d="M184 184l144 0 0 144-144 0z m174 174l0-204-204 0 0 204z"/>
<glyph glyph-name="diskette-1" unicode="&#72;" d="M375 317l-71 59c-2 2-5 3-7 3l-153 0c-6 0-11-5-11-11l0-224c0-6 5-11 11-11l224 0c6 0 10 5 11 10l0 166c0 3-2 5-4 8z m-116 41l0-82-69 0 0 82z m99-204l-205 0 0 204 17 0 0-93c0-5 4-10 10-10l89 0c6 0 11 5 11 10l0 93 13 0 65-54 0-150z m-125 143c5 0 10 4 10 10l0 20c0 6-5 10-10 10-6 0-11-4-11-10l0-20c0-6 5-10 11-10z"/>
</font>
</defs>
</svg>
